<?xml version="1.0" encoding="utf-8"?>
<!-- Generator: Adobe Illustrator 14.0.0, SVG Export Plug-In . SVG Version: 6.00 Build 43363)  -->
<!DOCTYPE svg PUBLIC "-//W3C//DTD SVG 1.0//EN" "http://www.w3.org/TR/2001/REC-SVG-20010904/DTD/svg10.dtd">
<svg version="1.0" id="Layer_1" xmlns="http://www.w3.org/2000/svg" xmlns:xlink="http://www.w3.org/1999/xlink" x="0px" y="0px"
	 width="85.781px" height="100px" viewBox="0 0 85.781 100" enable-background="new 0 0 85.781 100" xml:space="preserve">
<path d="M0,33.484V92.81C0,96.782,2.659,100,5.938,100h73.906c3.28,0,5.938-3.218,5.938-7.19V33.484H0z M20.95,94.062H5.277V78.39
	H20.95V94.062z M20.95,74.431H5.277V58.758H20.95V74.431z M20.95,54.929H5.277V39.256H20.95V54.929z M40.582,94.062H24.908V78.39
	h15.673V94.062z M40.582,74.431H24.908V58.758h15.673V74.431z M40.582,54.929H24.908V39.256h15.673V54.929z M60.214,94.062H44.539
	V78.39h15.675V94.062z M60.214,74.431H44.539V58.758h15.675V74.431z M60.214,54.929H44.539V39.256h15.675V54.929z M79.844,94.062
	H64.173V78.39h15.671V94.062z M79.844,74.431H64.173V58.758h15.671V74.431z M79.844,54.929H64.173V39.256h15.671V54.929z"/>
<path d="M79.844,12.855H65.243v-9.15C65.243,1.66,63.879,0,62.193,0s-3.05,1.66-3.05,3.705v9.15H25.98v-9.15
	C25.98,1.66,24.615,0,22.93,0s-3.05,1.66-3.05,3.705v9.15H5.938C2.659,12.855,0,16.073,0,20.045v10.471h85.781V20.045
	C85.781,16.073,83.124,12.855,79.844,12.855z M22.929,26.391c-3.097,0-5.608-2.513-5.608-5.609c0-1.969,1.021-3.697,2.559-4.696
	v2.649c0,2.045,1.365,3.704,3.05,3.704s3.05-1.659,3.05-3.704v-2.647c1.537,0.999,2.557,2.726,2.557,4.694
	C28.537,23.878,26.026,26.391,22.929,26.391z M62.193,26.391c-3.099,0-5.609-2.513-5.609-5.609c0-1.969,1.021-3.697,2.56-4.696
	v2.649c0,2.045,1.364,3.704,3.05,3.704s3.05-1.659,3.05-3.704v-2.647c1.537,0.999,2.558,2.726,2.558,4.694
	C67.801,23.878,65.29,26.391,62.193,26.391z"/>
</svg>
